<svg id="Layer_1" data-name="Layer 1" xmlns="http://www.w3.org/2000/svg" xmlns:xlink="http://www.w3.org/1999/xlink" viewBox="0 0 60.44 61.49">
  <defs>
    <style>
      .cls-1 {
        fill: #41b6a6;
      }

      .cls-2 {
        fill: #fe8f00;
      }

      .cls-3 {
        fill: #fff;
      }

      .cls-4 {
        fill: none;
        stroke-width: 0.5px;
        stroke: url(#linear-gradient);
      }
    </style>
    <linearGradient id="linear-gradient" x1="152.91" y1="26.35" x2="152.91" y2="27.35" gradientTransform="translate(-9134.99 -554.37) scale(59.94 21.81)" gradientUnits="userSpaceOnUse">
      <stop offset="0" stop-color="#41b6a6"/>
      <stop offset="0.23" stop-color="#fff"/>
      <stop offset="0.75" stop-color="#fff"/>
      <stop offset="1" stop-color="#41b6a6"/>
    </linearGradient>
  </defs>
  <title>logo</title>
  <g id="Page-1">
    <g id="Doctor---Dashboard">
      <g id="Header">
        <g id="Header-Copy">
          <g id="Background">
            <g id="Path-Copy-_-Rectangle-1-_-EHR-1_ai.ai" data-name="Path-Copy- -Rectangle-1- -EHR-1 ai.ai">
              <g id="logo">
                <g id="EHR-1_ai.ai" data-name="EHR-1 ai.ai">
                  <path id="Rectangle-2" class="cls-1" d="M2,21.64A2,2,0,0,1,4,19.88H58.87a1.54,1.54,0,0,1,1.57,1.52,1.57,1.57,0,0,1,0,.25l-2,18.75a2,2,0,0,1-1.94,1.77H1.57A1.54,1.54,0,0,1,0,40.65a1.57,1.57,0,0,1,0-.25Z" transform="translate(0 0.05)"/>
                  <path id="Fill-1" class="cls-2" d="M22.42,19.65L23,12.52H11.37L24.1-.05H41.69a1.05,1.05,0,0,1,1,1.21L42.57,2.83h0L41.29,19.65H22.42ZM38.76,53.32L38.39,58.1h0l-0.14,2v0.19a1.24,1.24,0,0,1-1.13,1.15H20.26a1,1,0,0,1-1-1s0,0,0-.05l0.55-7L20.54,44H39.47Z" transform="translate(0 0.05)"/>
                  <path id="Fill-3" class="cls-3" d="M9.91,38.28A8.66,8.66,0,0,1,7.51,38,3,3,0,0,1,6,37.11a3.15,3.15,0,0,1-.69-1.6,10.25,10.25,0,0,1,0-2.43l0.39-4.75a10.77,10.77,0,0,1,.41-2.38,3.84,3.84,0,0,1,1-1.61,3.73,3.73,0,0,1,1.62-.89,9.2,9.2,0,0,1,2.44-.28h14l-0.5,6.14h9.68l0.52-6.17h2.92l-1,12.21h2.26l1-12.18H50.41a11.94,11.94,0,0,1,2.36.2,3.39,3.39,0,0,1,1.56.71,2.61,2.61,0,0,1,.8,1.4,7.1,7.1,0,0,1,.1,2.23l-0.09,1a6.67,6.67,0,0,1-.47,2.24A3.27,3.27,0,0,1,53.6,32.3a4.32,4.32,0,0,1-1.69.65,12.22,12.22,0,0,1-2.36.2H49l5.53,5.13H49.47l-4.56-4.82,0.24-2.87h4.46a9,9,0,0,0,1.2-.07,1.84,1.84,0,0,0,.78-0.27A1.2,1.2,0,0,0,52,29.67a3.64,3.64,0,0,0,.2-1l0.07-.82a3.31,3.31,0,0,0,0-1,1,1,0,0,0-.39-0.54A1.52,1.52,0,0,0,51.18,26,9,9,0,0,0,50,25.95H42.77l-0.16,1.89-0.23,2.75L42.2,32.77,42,35.35l-0.24,2.92H33.64l0.5-6H24.46l-0.5,6H21L22,26H10.91a3.82,3.82,0,0,0-1.06.12,1.55,1.55,0,0,0-.68.39,1.6,1.6,0,0,0-.39.71,6.1,6.1,0,0,0-.18,1.11l-0.08,1H19.79L19.57,32H8.32L8.23,33.09a6,6,0,0,0,0,1.13,1.37,1.37,0,0,0,.26.71,1.08,1.08,0,0,0,.62.37,4.54,4.54,0,0,0,1,.1h9.21l-0.24,2.86H9.91v0Z" transform="translate(0 0.05)"/>
                </g>
                <path id="Rectangle-2-2" data-name="Rectangle-2" class="cls-4" d="M2.26,21.76A2,2,0,0,1,4.18,20H58.64a1.52,1.52,0,0,1,1.54,1.73l-2,18.35a2,2,0,0,1-1.92,1.73H1.81A1.52,1.52,0,0,1,.27,40.11Z" transform="translate(0 0.05)"/>
              </g>
            </g>
          </g>
        </g>
      </g>
    </g>
  </g>
</svg>
