<?xml version="1.0"?>
<svg xmlns="http://www.w3.org/2000/svg" id="Outline" viewBox="0 0 512 512" width="512px" height="512px"><g><path d="M488,64H464V56a8,8,0,0,0-8-8H400V40a24,24,0,0,0-48,0v8H336V40a24,24,0,0,0-48,0v8H192V40a24,24,0,0,0-48,0v8H128V40a24,24,0,0,0-48,0v8H24a8,8,0,0,0-8,8V456a8,8,0,0,0,8,8h8v24a8,8,0,0,0,8,8H488a8,8,0,0,0,8-8V72A8,8,0,0,0,488,64ZM32,448V160H448V448ZM368,40a8,8,0,0,1,16,0v8H368Zm-64,0a8,8,0,0,1,16,0v8H304ZM160,40a8,8,0,0,1,16,0v8H160ZM96,40a8,8,0,0,1,16,0v8H96ZM80,64v8a24.028,24.028,0,0,0,24,24,8,8,0,0,0,0-16,8.009,8.009,0,0,1-8-8V64h48v8a24.028,24.028,0,0,0,24,24,8,8,0,0,0,0-16,8.009,8.009,0,0,1-8-8V64H288v8a24.028,24.028,0,0,0,24,24,8,8,0,0,0,0-16,8.009,8.009,0,0,1-8-8V64h48v8a24.028,24.028,0,0,0,24,24,8,8,0,0,0,0-16,8.009,8.009,0,0,1-8-8V64h80v80H32V64ZM480,480H48V464H456a8,8,0,0,0,8-8V80h16Z" data-original="#000000" class="active-path" data-old_color="#000000" fill="#C12020"/><path d="M240,416A112,112,0,1,1,352,304,112.127,112.127,0,0,1,240,416Zm0-208a96,96,0,1,0,66.461,26.726A96.108,96.108,0,0,0,240,208Z" data-original="#000000" class="active-path" data-old_color="#000000" fill="#C12020"/><path d="M250.414,304l35.732-42.878a8,8,0,0,0-12.292-10.244L240,291.5l-33.854-40.626a8,8,0,0,0-12.292,10.244L229.586,304l-35.732,42.878a8,8,0,0,0,12.292,10.244L240,316.5l33.854,40.626a8,8,0,0,0,12.292-10.244Z" data-original="#000000" class="active-path" data-old_color="#000000" fill="#C12020"/></g> </svg>
