<svg id="Capa_1" enable-background="new 0 0 511.933 511.933" height="512" viewBox="0 0 511.933 511.933" width="512" xmlns="http://www.w3.org/2000/svg"><g><g><g><g><path d="m239.373 114.408c18.286-9.16 33.668-27.499 56.139-27.658 20.275-.144 41.611 6.488 58.409 17.794 49.29 33.177 55.829 109.981 28.824 158.881-19.738 35.741-15.608 68.226-15.825 107.124-.225 40.385-.498 89.495-31.001 117.002-10.131 9.136-29.597 21.301-43.001 15-14.086-6.621-9.914-28.199-20-68.001-6.304-24.876-21.456-98.64-62.489-83.045-28.399 10.793-35.668 57.556-42.127 83.045-10.087 39.802-5.914 61.38-20 68.001-13.404 6.3-32.87-5.864-43.001-15-30.502-27.507-30.776-76.617-31.001-117.005-.147-26.494 3.937-51.898-3.684-77.912-5.843-19.941-18.585-37.442-23.734-57.2-3.995-15.33-4.871-31.624-3.453-47.363 2.886-32.032 16.394-65.031 43.87-83.526 16.656-11.211 38.018-18.895 58.738-17.38 24.823 1.815 36.371 20.489 57.816 29.071 13.961 5.587 25.203 3.34 35.52-1.828z" fill="#f7f6f7"/><g fill="#e2dfe3"><path d="m353.92 104.544c-16.798-11.307-38.134-17.938-58.409-17.794-4.023.029-7.816.648-11.442 1.685 14.224 2.626 28.141 8.228 39.852 16.109 49.29 33.177 55.829 109.981 28.824 158.881-19.738 35.741-15.608 68.226-15.825 107.124-.225 40.385-.498 89.495-31.001 117.002-4.432 3.997-10.65 8.572-17.365 11.929 1.227 1.245 2.66 2.271 4.364 3.071 13.404 6.3 32.87-5.864 43.001-15 30.502-27.507 30.776-76.617 31.001-117.002.216-38.898-3.913-71.383 15.825-107.124 27.004-48.9 20.466-125.704-28.825-158.881z"/><path d="m180.43 351.505c-28.399 10.793-35.668 57.555-42.127 83.044-8.866 34.986-6.72 55.886-15.636 64.93 8.636 4.316 18.095 6.616 25.636 3.071 14.086-6.621 9.914-28.199 20-68.001 6.081-23.997 12.887-66.839 37.36-80.78-7.087-4.603-15.418-5.994-25.233-2.264z"/></g></g></g><g><circle cx="365.474" cy="110.96" fill="#b3e59f" r="103.67"/><path d="m365.474 7.29c-5.094 0-10.101.376-15 1.089 50.081 7.291 88.67 50.512 88.67 102.582s-38.59 95.291-88.67 102.581c4.899.713 9.906 1.089 15 1.089 57.164 0 103.67-46.506 103.67-103.67.001-57.165-46.506-103.671-103.67-103.671z" fill="#95d6a4"/><g><path d="m347.771 156.817c-6 0-11.997-2.282-16.565-6.848l-19.464-19.466c-6.861-6.863-6.861-17.988.001-24.849 6.863-6.861 17.988-6.864 24.85 0l8.694 8.695c1.372 1.372 3.598 1.372 4.97 0l43.749-43.749c6.69-6.69 17.588-7.306 24.586-.939 7.472 6.798 7.677 18.375.615 25.436l-54.869 54.869c-4.568 4.568-10.568 6.851-16.567 6.851z" fill="#fff"/></g></g></g><path d="m139.841 138.571c3.971-1.18 6.233-5.354 5.054-9.325s-5.353-6.233-9.325-5.054c-13.57 4.031-25.64 11.367-34.905 21.213-25.794 27.412-21.203 64.301-20.02 71.417.61 3.67 3.788 6.271 7.389 6.271 4.568 0 8.161-4.195 7.408-8.73-.979-5.893-4.802-36.416 16.147-58.679 9.413-10.003 20.559-14.828 28.252-17.113zm166.599-38.22c-9.639 9.638-9.754 25.796-.001 35.455l19.466 19.468c5.834 5.831 13.6 9.043 21.867 9.043 8.268 0 16.035-3.213 21.87-9.046l54.868-54.869c10.026-9.943 9.488-26.866-.871-36.288-9.91-9.015-25.255-8.497-34.936 1.183l-40.931 40.931-5.875-5.874c-9.618-9.717-25.81-9.649-35.457-.003zm41.332 22.528c2.943 0 5.709-1.146 7.788-3.226l43.749-43.749c3.939-3.94 10.325-4.251 14.234-.695 4.186 3.807 4.397 10.595.36 14.586l-54.868 54.869c-3.001 3.001-7.001 4.653-11.264 4.653-4.261 0-8.261-1.652-11.261-4.65l-19.464-19.466c-3.893-3.855-3.875-10.369 0-14.242 3.878-3.876 10.384-3.897 14.243 0l8.695 8.695c2.08 2.079 4.845 3.225 7.786 3.225zm24.788-122.867c-4.142-.234-7.697 2.878-7.958 7.012s2.877 7.697 7.011 7.959c50.485 3.193 90.032 45.352 90.032 95.977 0 54.04-44.2 96.171-96.17 96.171-53.028 0-96.17-43.142-96.17-96.171 0-42.692 28.675-80.721 69.733-92.477 3.982-1.14 6.286-5.292 5.146-9.274-1.14-3.981-5.293-6.29-9.275-5.146-42.331 12.12-73.253 48.409-79.445 91.128-6.368 4.385-13.103 9.333-19.448 12.512-10.361 5.191-19.147 5.66-29.373 1.573-7.62-3.051-13.926-7.569-20.603-12.353-10.972-7.86-22.317-15.988-39.46-17.245-20.518-1.493-43.65 5.299-63.463 18.639-26.478 17.826-43.664 50.294-47.151 89.078-1.596 17.695-.364 34.493 3.663 49.925 2.856 10.961 7.818 21.118 12.616 30.94 4.391 8.987 8.537 17.477 11.173 26.476 5.242 17.901 4.578 35.681 3.874 54.503-.259 6.938-.527 14.113-.486 21.351.225 41.345.505 92.799 33.476 122.527 13.148 11.855 34.098 24.267 51.215 16.219 12.639-5.942 14.615-19.215 17.351-37.584 1.418-9.522 3.183-21.375 6.729-35.36.815-3.216 1.634-6.727 2.501-10.443 1.191-5.104 2.994-12.382-4.377-14.118-7.221-1.701-8.987 5.379-10.231 10.71-.851 3.646-1.654 7.089-2.434 10.166-3.731 14.716-5.558 26.981-7.025 36.837-2.447 16.431-3.746 23.797-8.894 26.218-8.335 3.913-24.145-4.177-34.789-13.782-28.054-25.294-28.313-73.077-28.522-111.473-.04-6.915.223-13.926.476-20.706.717-19.192 1.459-39.037-4.468-59.279-2.995-10.223-7.619-19.689-12.091-28.844-4.68-9.581-9.101-18.63-11.58-28.142-3.588-13.754-4.678-28.824-3.237-44.794 3.081-34.267 17.875-62.689 40.589-77.98 17.082-11.5 36.759-17.376 53.993-16.122 12.931.948 21.683 7.219 31.818 14.479 7.108 5.092 14.458 10.357 23.767 14.085 14.228 5.688 27.467 5.023 41.665-2.089 4.03-2.021 7.882-4.42 11.619-6.927 1.715 59.812 50.901 107.942 111.12 107.942 8.234 0 16.258-.908 23.987-2.614-2.198 14.637-6.717 28.396-13.282 40.278-17.619 31.908-17.253 61.618-16.866 93.073.07 5.722.144 11.639.111 17.678-.219 38.382-.491 86.149-28.534 111.436-10.642 9.604-26.453 17.695-34.784 13.781-5.151-2.422-6.45-9.788-8.897-26.22-1.467-9.855-3.294-22.12-7.024-36.834-6.304-24.868-16.567-72.889-43.429-86.994-8.97-4.71-18.722-5.117-28.985-1.216-13.986 5.313-24.754 17.907-32.919 38.499-1.526 3.851.357 8.21 4.208 9.736 3.851 1.53 8.21-.356 9.737-4.207 6.525-16.457 14.475-26.272 24.304-30.007 6.158-2.341 11.615-2.187 16.684.476 20.311 10.667 30.479 56.166 35.861 77.396 3.545 13.985 5.31 25.837 6.728 35.359 2.736 18.37 4.712 31.643 17.353 37.586 17.338 8.152 38.171-4.459 51.211-16.218 32.958-29.718 33.251-81.157 33.487-122.529.033-6.136-.041-12.12-.112-17.907-.378-30.693-.705-57.201 14.997-85.637 8.461-15.312 13.899-33.285 15.859-52.248 41.754-16.015 71.477-56.518 71.477-103.839-.004-58.52-45.724-107.253-104.089-110.946zm-280.138 236.557c-4.129.321-7.217 3.93-6.896 8.059.337 4.336 1.029 8.673 2.055 12.89.834 3.43 3.902 5.729 7.281 5.729 4.757 0 8.428-4.613 7.293-9.275-.836-3.437-1.399-6.971-1.674-10.505-.322-4.132-3.938-7.229-8.059-6.898z"/></g></svg>