<svg height="512" viewBox="0 0 64 64" width="512" xmlns="http://www.w3.org/2000/svg">
<g id="decay">
<path fill="#41b6a6" d="m49 32h-4c-1.74 0-3.14 1.61-4 2.94-.86-1.33-2.26-2.94-4-2.94h-4a7.008 7.008 0 0 0 -7 7v.88a24.955 24.955 0 0 0 1.43 8.34l4.18 11.82a2.912 2.912 0 0 0 5.61-.39l2.85-7.43a1 1 0 0 1 1.86 0l2.85 7.43a2.915 2.915 0 0 0 5.61.4l4.18-11.83a24.955 24.955 0 0 0 1.43-8.34v-.88a7.008 7.008 0 0 0 -7-7zm5 7.88a22.785 22.785 0 0 1 -1.32 7.67l-4.18 11.84a.918.918 0 0 1 -.86.61.9.9 0 0 1 -.9-.77 1.6 1.6 0 0 0 -.05-.21l-2.89-7.52a3 3 0 0 0 -5.6 0l-2.89 7.52a1.6 1.6 0 0 0 -.05.21.909.909 0 0 1 -1.76.15l-4.18-11.83a22.785 22.785 0 0 1 -1.32-7.67v-.88a5 5 0 0 1 5-5h4c1.06 0 2.47 2.03 3.09 3.41a1 1 0 0 0 1.82 0c.62-1.38 2.03-3.41 3.09-3.41h4a5 5 0 0 1 5 5z"/>
<path fill="#41b6a6" d="m49 36h-1v2h1a1 1 0 0 1 1 1v1h2v-1a3 3 0 0 0 -3-3z"/>
<path fill="#41b6a6" d="m41 40c-1.12 0-3-.26-3-2h-2c0 1.845 1.31 4 5 4s5-2.155 5-4h-2c0 1.74-1.88 2-3 2z"/>
<path fill="#41b6a6" d="m37 13h2a7.008 7.008 0 0 0 -7-7v2a5.006 5.006 0 0 1 5 5z"/>
<path fill="#41b6a6" d="m32 2a10.992 10.992 0 0 0 -9.6 16.36l-3.13 3.13-.7-.71a3.078 3.078 0 0 0 -4.25 0 2.965 2.965 0 0 0 -.86 1.96 2.961 2.961 0 0 0 -2.83 2.86 2.943 2.943 0 0 0 -1.96.84 3 3 0 0 0 0 4.24l-6.38 6.37a1.033 1.033 0 0 0 -.29.71v8.48a.987.987 0 0 0 .62.92.838.838 0 0 0 .38.08 1.007 1.007 0 0 0 .71-.29l10.61-10.62a2.973 2.973 0 0 0 2.12.88 2.994 2.994 0 0 0 2.99-2.84 2.963 2.963 0 0 0 2.83-2.83 2.983 2.983 0 0 0 1.96-5.1l-.71-.71 3.13-3.13a11 11 0 1 0 5.36-20.6zm-28 41.83v-5.66l6.08-6.08 2.83 2.83zm13.15-8.91a1.014 1.014 0 0 1 -1.41 0l-5.66-5.66a1 1 0 0 1 0-1.41 1.014 1.014 0 0 1 1.41 0l5.66 5.66a1 1 0 0 1 0 1.41zm2.83-2.83a1.008 1.008 0 0 1 -1.42 0l-5.65-5.66a.951.951 0 0 1 -.29-.7 1 1 0 0 1 1.7-.71l5.66 5.66a1 1 0 0 1 0 1.41zm2.83-2.83a1.008 1.008 0 0 1 -1.42 0l-5.65-5.65a.99.99 0 0 1 0-1.42 1.024 1.024 0 0 1 1.41 0l5.66 5.66a1 1 0 0 1 0 1.41zm-.71-4.95-1.41-1.41 2.86-2.87a10.585 10.585 0 0 0 1.42 1.42zm9.9-2.31a9 9 0 1 1 9-9 9.014 9.014 0 0 1 -9 9z"/>
<path fill="#41b6a6" d="m50 29h2v-2h2v-2h-2v-2h-2v2h-2v2h2z"/>
<path fill="#41b6a6" d="m27 56h-2v2h-2v2h2v2h2v-2h2v-2h-2z"/>
<path fill="#41b6a6" d="m20 47h-2v2h-2v2h2v2h2v-2h2v-2h-2z"/>
<path fill="#41b6a6" d="m62 31h-2v-2h-2v2h-2v2h2v2h2v-2h2z"/>
</g>
</svg>